<svg width="151" height="220" viewBox="0 0 151 220" fill="none" xmlns="http://www.w3.org/2000/svg">
<path d="M90.8241 190.528C91.7923 191.986 93.6127 194.941 94.5036 196.832L92.2184 197.857C91.2501 195.769 89.8945 193.326 88.6163 191.513L90.8241 190.528ZM95.8205 188.519C96.8275 189.898 98.6866 192.853 99.6162 194.705L97.4085 195.808C96.3627 193.72 94.9296 191.316 93.6515 189.543L95.8205 188.519ZM80.0953 187.297C79.9017 188.637 79.7855 189.977 79.708 191.277C79.5531 195.729 79.2432 205.067 79.2432 210.938C79.2432 215.272 81.9157 216.769 85.5953 216.769C92.6832 216.769 96.7113 212.75 99.5 208.653L101.669 211.332C99.0352 215.036 94.0388 220 85.5178 220C79.9404 220 76.106 217.675 76.106 211.214C76.106 205.382 76.4933 195.414 76.4933 191.277C76.4933 189.819 76.4158 188.44 76.1447 187.297H80.0953Z" fill="#28283B"/>
<path d="M51.5877 190.528C52.556 191.986 54.3764 194.941 55.2672 196.832L52.9821 197.857C52.0138 195.769 50.6582 193.326 49.38 191.513L51.5877 190.528ZM56.5841 188.519C57.5912 189.898 59.4503 192.853 60.3798 194.705L58.1721 195.808C57.1264 193.72 55.6933 191.316 54.4151 189.543L56.5841 188.519ZM40.859 187.297C40.6653 188.637 40.5492 189.977 40.4717 191.277C40.3168 195.729 40.0069 205.067 40.0069 210.938C40.0069 215.272 42.6794 216.769 46.3589 216.769C53.4469 216.769 57.475 212.75 60.2637 208.653L62.4326 211.332C59.7989 215.036 54.8025 220 46.2815 220C40.7041 220 36.8696 217.675 36.8696 211.214C36.8696 205.382 37.2569 195.414 37.2569 191.277C37.2569 189.819 37.1795 188.44 36.9084 187.297H40.859Z" fill="#28283B"/>
<path d="M129.803 159.151C129.765 157.421 130.006 156.001 130.527 154.891C131.057 153.782 131.767 152.962 132.657 152.432C133.546 151.892 134.526 151.622 135.596 151.622C136.542 151.622 137.418 151.837 138.223 152.267C139.027 152.687 139.945 153.377 140.977 154.336C141.621 154.926 142.146 155.356 142.553 155.626C142.96 155.886 143.415 156.016 143.916 156.016C144.683 156.016 145.294 155.716 145.748 155.116C146.212 154.506 146.434 153.607 146.415 152.417H150.008C150.046 154.157 149.799 155.581 149.269 156.691C148.749 157.801 148.039 158.621 147.139 159.151C146.25 159.681 145.275 159.946 144.215 159.946C143.258 159.946 142.378 159.731 141.574 159.301C140.769 158.861 139.855 158.171 138.833 157.231C138.171 156.621 137.64 156.191 137.243 155.941C136.845 155.681 136.396 155.551 135.894 155.551C135.165 155.551 134.559 155.831 134.077 156.391C133.603 156.941 133.376 157.861 133.395 159.151H129.803Z" fill="#28283B"/>
<path d="M122.791 135.568V178.846H119.234V135.568H122.791Z" fill="#28283B"/>
<path d="M32.1007 137.346V178.846H27.3579V137.346H32.1007Z" fill="#28283B"/>
<path d="M0.0149678 159.151C-0.0217824 157.421 0.212499 156.001 0.717811 154.891C1.23231 153.782 1.92137 152.962 2.785 152.432C3.64862 151.892 4.59953 151.622 5.63772 151.622C6.55647 151.622 7.40631 151.837 8.18725 152.267C8.96818 152.687 9.85937 153.377 10.8608 154.336C11.4856 154.926 11.9955 155.356 12.3905 155.626C12.7856 155.886 13.2266 156.016 13.7135 156.016C14.4577 156.016 15.0503 155.716 15.4913 155.116C15.9415 154.506 16.1574 153.607 16.139 152.417H19.6257C19.6624 154.157 19.4236 155.581 18.9091 156.691C18.4037 157.801 17.7147 158.621 16.8419 159.151C15.9782 159.681 15.0319 159.946 14.0029 159.946C13.075 159.946 12.2206 159.731 11.4396 159.301C10.6587 158.861 9.77209 158.171 8.77984 157.231C8.13671 156.621 7.62222 156.191 7.23634 155.941C6.85047 155.681 6.41406 155.551 5.92712 155.551C5.21968 155.551 4.63168 155.831 4.16312 156.391C3.70375 156.941 3.48325 157.861 3.50162 159.151H0.0149678Z" fill="#28283B"/>
<path d="M114.307 135.493V137.131H75.2925V135.493H114.307Z" fill="#28283B"/>
<path d="M75.2936 135.493V137.131H36.2793V135.493H75.2936Z" fill="#28283B"/>
<path d="M120.778 122.681C121.286 111.598 124.173 105.16 130.415 97.0825H114.146V94.0389H134.511V96.2631C127.099 105.511 124.797 111.872 124.602 122.681H120.778Z" fill="#28283B"/>
<path d="M82.2075 113.198C85.5237 113.198 88.1767 115.852 88.1767 119.13C88.1767 122.407 85.5237 125.061 82.2075 125.061C78.9693 125.061 76.2773 122.407 76.2773 119.13C76.2773 115.852 78.9693 113.198 82.2075 113.198ZM82.2075 123.071C84.4313 123.071 86.187 121.315 86.187 119.13C86.187 116.944 84.4313 115.188 82.2075 115.188C80.0617 115.188 78.2671 116.944 78.2671 119.13C78.2671 121.315 80.0617 123.071 82.2075 123.071Z" fill="#28283B"/>
<path d="M54.6764 124.866C52.1794 121.783 48.8242 118.466 46.0542 116.203L48.5901 113.979C51.3992 116.242 54.9105 119.754 57.3293 122.603L54.6764 124.866Z" fill="#28283B"/>
<path d="M28.2641 94.3121C28.2641 95.9119 29.1615 97.2387 30.4099 97.2387C31.5804 97.2387 32.5557 95.9119 32.5557 94.3121C32.5557 92.7122 31.5804 91.3855 30.4099 91.3855C29.1615 91.3855 28.2641 92.7122 28.2641 94.3121ZM26.6646 94.3121C26.6646 91.6586 28.3032 89.5125 30.4099 89.5125C32.4777 89.5125 34.1163 91.6586 34.1163 94.3121C34.1163 96.9655 32.4777 99.1117 30.4099 99.1117C28.3032 99.1117 26.6646 96.9655 26.6646 94.3121Z" fill="#28283B"/>
<path d="M13.7124 107.852C13.7124 100.243 16.7945 94.078 21.4763 89.3174L23.8171 90.527C19.2915 95.1706 16.5214 100.907 16.5214 107.852C16.5214 114.837 19.2915 120.573 23.8171 125.217L21.4763 126.427C16.7945 121.666 13.7124 115.501 13.7124 107.852Z" fill="#28283B"/>
<path d="M91.4693 77.715C88.9334 74.6323 85.5781 71.3155 82.8081 69.0523L85.344 66.8281C88.1531 69.0913 91.6644 72.6032 94.1223 75.4518L91.4693 77.715Z" fill="#28283B"/>
<path d="M64.4712 48.8392C65.4465 50.205 67.2412 53.2096 68.0995 54.7314L65.7586 55.707C64.9393 54.1071 63.3007 51.1805 62.2473 49.7367L64.4712 48.8392ZM69.582 47.2003C70.5574 48.5661 72.313 51.4927 73.1713 53.0535L70.9085 54.0681C70.0112 52.3901 68.4116 49.5416 67.3192 48.1368L69.582 47.2003ZM54.9517 53.0535C59.4383 56.9556 66.3829 64.4477 69.8941 69.3254L66.9681 71.5886C63.5738 66.4768 57.0974 59.2969 52.1816 55.1997L54.9517 53.0535Z" fill="#28283B"/>
<path d="M40.9203 45.8204L31.7763 79.7978H28.7837L37.9277 45.8204H40.9203Z" fill="#28283B"/>
<path d="M76.1257 0V28.3791H71.9824V0H76.1257Z" fill="#28283B"/>
</svg>
