<svg width="300" height="440" viewBox="0 0 300 440" fill="none" xmlns="http://www.w3.org/2000/svg">
<path d="M153.287 0V46.4115H146.492V0H153.287Z" fill="#28283B"/>
<path d="M153.287 43.8734V90.2849H146.492V43.8734H153.287Z" fill="#28283B"/>
<path d="M164.757 99.5914V104.577H135.666V99.5914H164.757Z" fill="#28283B"/>
<path d="M150 168C146.697 168 143.591 167.381 140.682 166.142C137.788 164.903 135.235 163.188 133.023 160.997C130.826 158.792 129.099 156.246 127.841 153.36C126.599 150.475 125.985 147.378 126 144.069C126.015 140.76 126.644 137.663 127.887 134.778C129.144 131.892 130.871 129.354 133.068 127.163C135.265 124.958 137.811 123.235 140.705 121.996C143.599 120.758 146.697 120.138 150 120.138C153.318 120.138 156.424 120.758 159.318 121.996C162.227 123.235 164.773 124.958 166.954 127.163C169.151 129.354 170.871 131.892 172.113 134.778C173.356 137.663 173.985 140.76 174 144.069C174.015 147.378 173.401 150.475 172.159 153.36C170.916 156.246 169.197 158.792 167 160.997C164.803 163.188 162.25 164.903 159.341 166.142C156.432 167.381 153.318 168 150 168ZM150 162.742C152.591 162.742 155.023 162.259 157.295 161.292C159.568 160.325 161.56 158.988 163.273 157.281C164.985 155.574 166.326 153.595 167.295 151.344C168.265 149.077 168.742 146.66 168.727 144.092C168.712 141.508 168.219 139.083 167.25 136.817C166.28 134.551 164.939 132.564 163.227 130.857C161.515 129.15 159.53 127.813 157.273 126.846C155.015 125.879 152.591 125.396 150 125.396C147.424 125.396 145.008 125.879 142.75 126.846C140.493 127.813 138.508 129.158 136.796 130.88C135.083 132.587 133.735 134.574 132.75 136.84C131.781 139.091 131.288 141.508 131.273 144.092C131.258 146.645 131.735 149.055 132.705 151.321C133.674 153.572 135.015 155.551 136.727 157.258C138.455 158.965 140.447 160.31 142.705 161.292C144.977 162.259 147.409 162.742 150 162.742Z" fill="#28283B"/>
<path d="M164.757 108.233V113.219H135.666V108.233H164.757Z" fill="#28283B"/>
<path d="M234.055 367V370H156.026V367H234.055Z" fill="#28283B"/>
<path d="M144.029 367V370H66V367H144.029Z" fill="#28283B"/>
</svg>
