<svg width="180" height="180" viewBox="0 0 180 180" fill="none" xmlns="http://www.w3.org/2000/svg">
<path d="M18.562 33.5774C17.7963 33.5774 17.138 33.3068 16.5871 32.7655C16.0362 32.2148 15.7608 31.5522 15.7608 30.7776C15.7608 30.0123 16.0362 29.359 16.5871 28.8177C17.138 28.267 17.7963 27.9917 18.562 27.9917C19.3276 27.9917 19.9859 28.267 20.5368 28.8177C21.0877 29.359 21.3631 30.0123 21.3631 30.7776C21.3631 31.2909 21.2324 31.7622 20.971 32.1915C20.7189 32.6115 20.3827 32.9475 19.9626 33.1994C19.5424 33.4514 19.0755 33.5774 18.562 33.5774Z" fill="#28283B"/>
<path d="M71.0099 0L72.1931 1.18265L36.6572 36.7017L35.474 35.5191L71.0099 0Z" fill="#28283B"/>
<path d="M80.5764 4.64102V33.3114H76.3887V4.64102H80.5764Z" fill="#28283B"/>
<path d="M94.1624 35.5191C91.5987 32.4047 88.2069 29.0539 85.4066 26.7674L87.9702 24.5204C90.8099 26.8068 94.3596 30.3548 96.8443 33.2326L94.1624 35.5191Z" fill="#28283B"/>
<path d="M19.5231 65.9658C19.5231 58.2786 22.6389 52.0499 27.3717 47.2405L29.7382 48.4625C25.1631 53.1537 22.3628 58.9487 22.3628 65.9658C22.3628 73.0223 25.1631 78.8173 29.7382 83.5085L27.3717 84.7306C22.6389 79.9212 19.5231 73.6925 19.5231 65.9658Z" fill="#28283B"/>
<path d="M34.2344 52.2865C34.2344 53.9028 35.1415 55.2431 36.4036 55.2431C37.5868 55.2431 38.5728 53.9028 38.5728 52.2865C38.5728 50.6702 37.5868 49.3298 36.4036 49.3298C35.1415 49.3298 34.2344 50.6702 34.2344 52.2865ZM32.6173 52.2865C32.6173 49.6058 34.2738 47.4376 36.4036 47.4376C38.4939 47.4376 40.1504 49.6058 40.1504 52.2865C40.1504 54.9671 38.4939 57.1353 36.4036 57.1353C34.2738 57.1353 32.6173 54.9671 32.6173 52.2865Z" fill="#28283B"/>
<path d="M60.9356 83.1537C58.4114 80.0394 55.0195 76.6886 52.2192 74.4021L54.7829 72.1551C57.6226 74.4415 61.1722 77.9895 63.6176 80.8673L60.9356 83.1537Z" fill="#28283B"/>
<path d="M88.7667 71.3666C92.1192 71.3666 94.8011 74.0473 94.8011 77.3587C94.8011 80.6702 92.1192 83.3508 88.7667 83.3508C85.4932 83.3508 82.7718 80.6702 82.7718 77.3587C82.7718 74.0473 85.4932 71.3666 88.7667 71.3666ZM88.7667 81.3403C91.0148 81.3403 92.7897 79.5664 92.7897 77.3587C92.7897 75.1511 91.0148 73.3771 88.7667 73.3771C86.5975 73.3771 84.7832 75.1511 84.7832 77.3587C84.7832 79.5664 86.5975 81.3403 88.7667 81.3403Z" fill="#28283B"/>
<path d="M127.76 80.9461C128.272 69.7503 131.191 63.2457 137.501 55.0854H121.055V52.0105H141.643V54.2576C134.149 63.6005 131.822 70.0263 131.625 80.9461H127.76Z" fill="#28283B"/>
<path d="M32.0531 90.6709V137.82H28.2995V90.6709H32.0531Z" fill="#28283B"/>
<path d="M47.7119 130.788C45.1483 127.674 41.7564 124.323 38.9561 122.037L41.5198 119.79C44.3595 122.076 47.9091 125.624 50.3939 128.502L47.7119 130.788Z" fill="#28283B"/>
<path d="M79.5505 120.321C79.5132 118.707 79.7513 117.381 80.2648 116.345C80.7877 115.31 81.488 114.544 82.3657 114.05C83.2434 113.546 84.2098 113.294 85.2649 113.294C86.1986 113.294 87.0623 113.494 87.856 113.896C88.6497 114.288 89.5554 114.932 90.5731 115.828C91.2081 116.378 91.7263 116.779 92.1278 117.031C92.5293 117.274 92.9775 117.395 93.4723 117.395C94.2287 117.395 94.8309 117.115 95.2791 116.555C95.7366 115.986 95.9561 115.146 95.9374 114.036H99.4809C99.5182 115.66 99.2754 116.989 98.7526 118.025C98.239 119.061 97.5387 119.827 96.6517 120.321C95.774 120.816 94.8122 121.063 93.7665 121.063C92.8234 121.063 91.955 120.863 91.1614 120.461C90.3677 120.051 89.4667 119.407 88.4582 118.529C87.8046 117.96 87.2817 117.559 86.8896 117.325C86.4974 117.083 86.0539 116.961 85.559 116.961C84.8401 116.961 84.2425 117.223 83.7663 117.745C83.2994 118.259 83.0753 119.117 83.094 120.321H79.5505Z" fill="#28283B"/>
<path d="M127.369 105.716C131.904 109.619 138.925 117.227 142.474 122.116L139.516 124.442C136.085 119.277 129.538 112.024 124.568 107.845L127.369 105.716Z" fill="#28283B"/>
<path d="M179.022 101.143C178.785 102.208 178.47 103.627 178.312 104.612C177.602 108.594 176.419 113.798 174.802 118.055C173.027 122.589 169.99 127.162 167.268 129.488L165.296 126.649C168.176 124.599 170.858 120.381 172.553 115.926C174.289 111.353 175.393 105.795 175.945 100.158L179.022 101.143Z" fill="#28283B"/>
<path d="M24.177 152.72C23.3093 153.233 22.3233 153.784 21.1401 154.376C18.4976 155.756 13.0154 158.357 9.1502 160.88C5.48223 163.285 3.27356 165.887 3.27356 168.844C3.27356 172.116 6.4288 174.166 12.6604 174.166C16.92 174.166 22.205 173.614 25.2814 172.825L25.2419 176.373C22.2839 176.886 17.7088 177.319 12.7787 177.319C5.36391 177.319 0 175.112 0 169.198C0 164.941 2.87916 161.59 7.53314 158.515C11.5561 155.834 17.0777 153.193 19.6414 151.735C20.7852 151.064 21.6528 150.552 22.4811 149.882L24.177 152.72Z" fill="#28283B"/>
<path d="M55.3745 149.014C56.3605 150.473 58.2142 153.43 59.1213 155.322L56.7943 156.347C55.8083 154.258 54.4279 151.813 53.1264 150L55.3745 149.014ZM60.4623 147.004C61.4878 148.384 63.3809 151.34 64.3275 153.193L62.0794 154.297C61.0145 152.208 59.5552 149.803 58.2536 148.029L60.4623 147.004ZM44.4495 145.782C44.2523 147.122 44.1339 148.463 44.0551 149.763C43.8973 154.218 43.5818 163.561 43.5818 169.435C43.5818 173.771 46.3032 175.269 50.05 175.269C57.2676 175.269 61.3694 171.248 64.2092 167.148L66.4178 169.829C63.7359 173.535 58.648 178.502 49.9711 178.502C44.2917 178.502 40.3871 176.176 40.3871 169.711C40.3871 163.876 40.7815 153.903 40.7815 149.763C40.7815 148.305 40.7026 146.925 40.4265 145.782H44.4495Z" fill="#28283B"/>
<path d="M94.815 149.014C95.801 150.473 97.6547 153.43 98.5619 155.322L96.2349 156.347C95.2488 154.258 93.8684 151.813 92.5669 150L94.815 149.014ZM99.9028 147.004C100.928 148.384 102.821 151.34 103.768 153.193L101.52 154.297C100.455 152.208 98.9957 149.803 97.6942 148.029L99.9028 147.004ZM83.89 145.782C83.6928 147.122 83.5745 148.463 83.4956 149.763C83.3378 154.218 83.0223 163.561 83.0223 169.435C83.0223 173.771 85.7437 175.269 89.4905 175.269C96.7081 175.269 100.81 171.248 103.65 167.148L105.858 169.829C103.176 173.535 98.0886 178.502 89.4116 178.502C83.7322 178.502 79.8276 176.176 79.8276 169.711C79.8276 163.876 80.222 153.903 80.222 149.763C80.222 148.305 80.1431 146.925 79.867 145.782H83.89Z" fill="#28283B"/>
<path d="M142.499 152.72C141.631 153.233 140.645 153.784 139.462 154.376C136.819 155.756 131.337 158.357 127.472 160.88C123.804 163.285 121.595 165.887 121.595 168.844C121.595 172.116 124.75 174.166 130.982 174.166C135.242 174.166 140.527 173.614 143.603 172.825L143.563 176.373C140.605 176.886 136.03 177.319 131.1 177.319C123.685 177.319 118.322 175.112 118.322 169.198C118.322 164.941 121.201 161.59 125.855 158.515C129.878 155.834 135.399 153.193 137.963 151.735C139.107 151.064 139.974 150.552 140.803 149.882L142.499 152.72ZM122.542 145.545C124.356 150.591 126.801 155.519 128.616 158.712L125.934 160.329C123.922 157.096 121.556 151.774 119.426 146.886L122.542 145.545Z" fill="#28283B"/>
<path d="M172.302 161.235C172.302 168.962 169.186 175.191 164.453 180L162.087 178.778C166.662 174.087 169.462 168.292 169.462 161.235C169.462 154.218 166.662 148.423 162.087 143.732L164.453 142.51C169.186 147.319 172.302 153.548 172.302 161.235Z" fill="#28283B"/>
</svg>
