<svg width="70" height="72" viewBox="0 0 70 72" fill="none" xmlns="http://www.w3.org/2000/svg">
<path d="M19.0062 41.4636C18.9453 38.6001 19.3332 36.2498 20.1698 34.4125C21.0217 32.5752 22.1625 31.218 23.5923 30.3407C25.0222 29.4469 26.5965 29 28.3154 29C29.8365 29 31.2435 29.3559 32.5364 30.0676C33.8294 30.7628 35.3049 31.9049 36.9629 33.4939C37.9972 34.4704 38.8414 35.1822 39.4955 35.6291C40.1496 36.0594 40.8797 36.2746 41.6859 36.2746C42.918 36.2746 43.8991 35.778 44.6292 34.7849C45.3746 33.7752 45.732 32.2856 45.7016 30.3159H51.4742C51.5351 33.1959 51.1396 35.5546 50.2878 37.3918C49.4512 39.2291 48.3103 40.5864 46.8653 41.4636C45.4354 42.3409 43.8687 42.7795 42.165 42.7795C40.6287 42.7795 39.2141 42.4237 37.9212 41.7119C36.6282 40.9836 35.1603 39.8416 33.5176 38.2857C32.4528 37.276 31.601 36.5643 30.9621 36.1505C30.3232 35.7201 29.6007 35.5049 28.7945 35.5049C27.6233 35.5049 26.6498 35.9684 25.874 36.8953C25.1134 37.8057 24.7484 39.3284 24.7788 41.4636H19.0062Z" fill="#28283B"/>
</svg>
