<svg width="48" height="168" viewBox="0 0 48 168" fill="none" xmlns="http://www.w3.org/2000/svg">
<path d="M27.2873 0V46.4115H20.492V0H27.2873Z" fill="#28283B"/>
<path d="M27.2873 43.8734V90.2849H20.492V43.8734H27.2873Z" fill="#28283B"/>
<path d="M38.757 99.5914V104.577H9.6664V99.5914H38.757Z" fill="#28283B"/>
<path d="M24 168C20.697 168 17.591 167.381 14.6819 166.142C11.788 164.903 9.23502 163.188 7.02292 160.997C4.82597 158.792 3.09873 156.246 1.84116 153.36C0.598755 150.475 -0.0148777 147.378 0.000273823 144.069C0.015425 140.76 0.644205 137.663 1.88662 134.778C3.14418 131.892 4.87144 129.354 7.06838 127.163C9.26532 124.958 11.8107 123.235 14.7047 121.996C17.5986 120.758 20.697 120.138 24 120.138C27.3181 120.138 30.4242 120.758 33.3181 121.996C36.2271 123.235 38.7726 124.958 40.9544 127.163C43.1513 129.354 44.871 131.892 46.1134 134.778C47.3558 137.663 47.9846 140.76 47.9997 144.069C48.0149 147.378 47.4013 150.475 46.1588 153.36C44.9164 156.246 43.1968 158.792 40.9998 160.997C38.8029 163.188 36.2499 164.903 33.3408 166.142C30.4317 167.381 27.3181 168 24 168ZM24 162.742C26.5909 162.742 29.0227 162.259 31.2954 161.292C33.5681 160.325 35.5605 158.988 37.2726 157.281C38.9847 155.574 40.3256 153.595 41.2953 151.344C42.2649 149.077 42.7422 146.66 42.7271 144.092C42.7119 141.508 42.2195 139.083 41.2498 136.817C40.2801 134.551 38.9392 132.564 37.2271 130.857C35.515 129.15 33.5302 127.813 31.2726 126.846C29.0151 125.879 26.5909 125.396 24 125.396C21.4243 125.396 19.0076 125.879 16.7501 126.846C14.4925 127.813 12.5077 129.158 10.7956 130.88C9.0835 132.587 7.73503 134.574 6.7502 136.84C5.78051 139.091 5.28809 141.508 5.27294 144.092C5.25779 146.645 5.73506 149.055 6.70475 151.321C7.67443 153.572 9.01532 155.551 10.7274 157.258C12.4547 158.965 14.4471 160.31 16.7046 161.292C18.9773 162.259 21.4091 162.742 24 162.742Z" fill="#28283B"/>
<path d="M38.757 108.233V113.219H9.6664V108.233H38.757Z" fill="#28283B"/>
</svg>
