<svg width="200" height="227" viewBox="0 0 200 227" fill="none" xmlns="http://www.w3.org/2000/svg">
<path d="M166.549 224.286V226.999H101.956V224.286H166.549Z" fill="#28283B"/>
<path d="M101.956 224.286V226.999H37.3628V224.286H101.956Z" fill="#28283B"/>
<path d="M177.263 203.078C178.103 184.733 182.883 174.075 193.218 160.704H166.282V155.666H200V159.348C187.727 174.656 183.916 185.185 183.593 203.078H177.263Z" fill="#28283B"/>
<path d="M113.403 187.381C118.894 187.381 123.286 191.774 123.286 197.2C123.286 202.625 118.894 207.018 113.403 207.018C108.042 207.018 103.585 202.625 103.585 197.2C103.585 191.774 108.042 187.381 113.403 187.381ZM113.403 203.723C117.085 203.723 119.992 200.817 119.992 197.2C119.992 193.582 117.085 190.676 113.403 190.676C109.851 190.676 106.879 193.582 106.879 197.2C106.879 200.817 109.851 203.723 113.403 203.723Z" fill="#28283B"/>
<path d="M67.823 206.695C63.689 201.592 58.134 196.101 53.5479 192.355L57.7464 188.673C62.3971 192.42 68.2105 198.233 72.2153 202.948L67.823 206.695Z" fill="#28283B"/>
<path d="M24.0927 156.118C24.0927 158.767 25.5783 160.963 27.6453 160.963C29.5831 160.963 31.1979 158.767 31.1979 156.118C31.1979 153.47 29.5831 151.274 27.6453 151.274C25.5783 151.274 24.0927 153.47 24.0927 156.118ZM21.4443 156.118C21.4443 151.726 24.1573 148.173 27.6453 148.173C31.0687 148.173 33.7817 151.726 33.7817 156.118C33.7817 160.511 31.0687 164.063 27.6453 164.063C24.1573 164.063 21.4443 160.511 21.4443 156.118Z" fill="#28283B"/>
<path d="M0 178.532C0 165.936 5.10288 155.731 12.8541 147.85L16.7297 149.853C9.23685 157.539 4.65072 167.034 4.65072 178.532C4.65072 190.094 9.23685 199.59 16.7297 207.276L12.8541 209.279C5.10288 201.398 0 191.192 0 178.532Z" fill="#28283B"/>
<path d="M128.737 128.644C124.538 123.542 118.983 118.051 114.397 114.305L118.596 110.623C123.246 114.369 129.06 120.183 133.129 124.898L128.737 128.644Z" fill="#28283B"/>
<path d="M84.0383 80.8454C85.6531 83.1062 88.6244 88.0799 90.0455 90.599L86.1699 92.2139C84.8134 89.5655 82.1005 84.721 80.3565 82.3311L84.0383 80.8454ZM92.5 78.1325C94.1149 80.3933 97.0216 85.2378 98.4426 87.8215L94.6962 89.5009C93.2106 86.7234 90.5622 82.0081 88.7536 79.6827L92.5 78.1325ZM68.2775 87.8215C75.7058 94.2808 87.2034 106.683 93.0168 114.757L88.1723 118.503C82.5527 110.042 71.8302 98.1564 63.6914 91.3741L68.2775 87.8215Z" fill="#28283B"/>
<path d="M45.0468 75.8482L29.9077 132.092H24.9531L40.0922 75.8482H45.0468Z" fill="#28283B"/>
<path d="M103.333 0V46.977H96.4746V0H103.333Z" fill="#28283B"/>
</svg>
