<svg width="64" height="75" viewBox="0 0 64 75" fill="none" xmlns="http://www.w3.org/2000/svg">
<path d="M35.3677 15.3482C36.9708 17.7614 39.9847 22.653 41.4596 25.7836L37.6762 27.4794C36.0731 24.0226 33.8287 19.9789 31.7125 16.9787L35.3677 15.3482ZM43.6399 12.0219C45.3071 14.3046 48.3852 19.1962 49.9242 22.2616L46.269 24.0878C44.5376 20.6311 42.165 16.6526 40.0488 13.7176L43.6399 12.0219ZM17.6049 10C17.2843 12.2175 17.0919 14.435 16.9637 16.5874C16.7072 23.9574 16.1942 39.4149 16.1942 49.1329C16.1942 56.3073 20.6188 58.7857 26.7107 58.7857C38.4457 58.7857 45.1148 52.1331 49.7318 45.3501L53.3228 49.7851C48.9623 55.9159 40.6901 64.1339 26.5825 64.1339C17.3484 64.1339 11 60.2858 11 49.5894C11 39.9367 11.6413 23.4356 11.6413 16.5874C11.6413 14.1742 11.513 11.8914 11.0641 10H17.6049Z" fill="#28283B"/>
</svg>
